<?xml version="1.0" encoding="UTF-8" ?>
<!DOCTYPE svg PUBLIC "-//W3C//DTD SVG 1.1//EN" "http://www.w3.org/Graphics/SVG/1.1/DTD/svg11.dtd">
<svg width="332pt" height="344pt" viewBox="0 0 332 344" version="1.1" xmlns="http://www.w3.org/2000/svg">
<path fill="#ffffff" d=" M 0.00 0.00 L 332.00 0.00 L 332.00 344.00 L 0.00 344.00 L 0.00 0.00 Z" />
<path fill="#ffca63" d=" M 110.94 23.79 C 124.21 13.26 141.04 7.24 158.01 7.22 C 178.48 6.74 198.92 15.17 213.33 29.68 C 226.27 42.36 234.42 59.79 235.89 77.85 C 238.12 101.54 228.41 125.86 210.78 141.77 C 210.27 142.02 209.24 142.51 208.72 142.75 C 222.66 130.71 231.55 113.12 233.42 94.82 C 236.68 67.16 222.62 38.58 199.02 23.90 C 184.05 14.33 165.56 10.27 147.98 13.02 C 131.28 15.39 115.46 23.66 104.05 36.09 C 90.73 50.14 83.33 69.61 83.97 88.96 C 84.15 109.21 93.70 128.68 108.36 142.42 C 100.64 136.93 95.03 128.85 90.47 120.65 C 80.86 102.89 78.87 81.30 84.79 62.03 C 89.32 47.01 98.59 33.46 110.94 23.79 Z" />
<path fill="#c5eae7" d=" M 147.98 13.02 C 165.56 10.27 184.05 14.33 199.02 23.90 C 222.62 38.58 236.68 67.16 233.42 94.82 C 231.55 113.12 222.66 130.71 208.72 142.75 C 208.41 142.86 207.79 143.06 207.48 143.16 C 206.11 138.39 204.56 133.64 202.19 129.27 C 197.26 131.50 191.34 134.06 189.83 139.82 C 188.69 145.07 189.92 150.48 189.43 155.79 C 186.67 156.67 183.90 157.52 181.11 158.31 C 181.30 154.21 181.18 150.11 181.18 146.01 C 166.39 145.99 151.61 145.99 136.82 146.01 C 136.83 150.11 136.70 154.21 136.82 158.32 C 132.49 157.30 128.42 155.52 124.37 153.74 C 124.38 149.61 127.13 146.10 127.03 141.98 C 126.98 134.82 127.04 127.66 126.99 120.50 C 128.78 121.89 130.75 123.06 132.45 124.58 C 133.22 129.73 132.53 135.02 132.77 140.23 C 150.26 140.24 167.74 140.25 185.23 140.23 C 185.33 134.84 185.10 129.44 185.28 124.06 C 185.12 122.73 186.49 122.07 187.25 121.25 C 198.31 112.29 205.40 98.32 205.28 84.01 C 205.36 69.69 198.47 55.51 187.13 46.76 C 177.88 39.43 165.82 35.76 154.05 36.75 C 138.84 37.80 124.47 46.78 116.79 59.94 C 110.86 69.78 108.89 81.81 111.03 93.07 C 112.85 103.52 118.61 113.05 126.51 120.05 C 118.42 125.58 112.39 133.57 108.36 142.42 C 93.70 128.68 84.15 109.21 83.97 88.96 C 83.33 69.61 90.73 50.14 104.05 36.09 C 115.46 23.66 131.28 15.39 147.98 13.02 Z" />
<path fill="#ffb602" d=" M 116.79 59.94 C 124.47 46.78 138.84 37.80 154.05 36.75 C 165.82 35.76 177.88 39.43 187.13 46.76 C 198.47 55.51 205.36 69.69 205.28 84.01 C 205.40 98.32 198.31 112.29 187.25 121.25 C 186.49 122.07 185.12 122.73 185.28 124.06 C 185.10 129.44 185.33 134.84 185.23 140.23 C 167.74 140.25 150.26 140.24 132.77 140.23 C 132.53 135.02 133.22 129.73 132.45 124.58 C 130.75 123.06 128.78 121.89 126.99 120.50 C 126.87 120.39 126.63 120.16 126.51 120.05 C 118.61 113.05 112.85 103.52 111.03 93.07 C 108.89 81.81 110.86 69.78 116.79 59.94 Z" />
<path fill="#ffffff" d=" M 176.05 47.94 C 182.90 50.40 188.63 55.80 191.50 62.47 C 192.88 66.78 186.73 70.01 183.48 67.39 C 181.24 65.27 180.98 62.00 180.30 59.17 C 179.63 55.18 178.35 51.29 176.05 47.94 Z" />
<path fill="#ffffff" d=" M 141.69 66.93 C 147.06 69.77 152.34 72.78 157.66 75.71 C 162.04 72.43 166.39 69.09 170.84 65.89 C 169.62 71.53 168.20 77.13 167.26 82.83 C 172.17 85.57 176.90 88.61 181.78 91.41 C 175.86 92.17 169.96 93.08 164.05 93.89 C 162.15 107.00 160.45 120.13 158.50 133.23 C 155.65 121.36 153.86 109.25 151.48 97.28 C 145.57 96.37 139.61 95.90 133.70 95.05 C 137.56 91.72 141.81 88.88 145.83 85.75 C 144.45 79.47 142.86 73.25 141.69 66.93 Z" />
<path fill="#ffffff" d=" M 187.36 74.93 C 190.14 73.95 193.78 72.30 196.36 74.55 C 198.62 77.49 199.67 81.41 199.16 85.09 C 198.33 90.32 189.32 90.07 188.50 84.99 C 187.83 81.68 187.74 78.28 187.36 74.93 Z" />
<path fill="#e18861" d=" M 126.51 120.05 C 126.63 120.16 126.87 120.39 126.99 120.50 C 127.04 127.66 126.98 134.82 127.03 141.98 C 127.13 146.10 124.38 149.61 124.37 153.74 C 124.38 162.21 129.24 170.09 136.15 174.77 C 148.58 183.55 166.92 183.65 178.77 173.75 C 184.19 169.18 188.06 162.75 189.43 155.79 C 189.92 150.48 188.69 145.07 189.83 139.82 C 191.34 134.06 197.26 131.50 202.19 129.27 C 204.56 133.64 206.11 138.39 207.48 143.16 C 210.30 154.56 210.58 166.58 208.23 178.08 C 208.05 178.37 207.68 178.94 207.50 179.22 C 207.33 178.67 207.01 177.57 206.85 177.02 C 200.62 187.96 188.62 194.09 176.66 196.50 C 158.03 200.35 138.57 193.95 123.62 182.72 C 122.26 184.32 120.91 185.94 119.75 187.69 C 111.55 200.39 102.64 212.61 94.38 225.26 C 90.08 221.53 85.98 217.28 83.88 211.89 C 81.99 207.05 81.89 201.42 84.22 196.71 C 85.90 204.76 89.97 214.25 99.04 215.86 C 93.68 211.22 89.16 205.39 87.35 198.42 C 84.84 189.36 86.30 179.53 90.12 171.06 C 90.24 182.04 94.79 194.59 105.79 198.88 C 99.71 193.86 95.17 186.79 93.83 178.96 C 92.07 169.67 95.41 159.87 101.55 152.85 C 100.87 162.88 102.60 173.82 109.45 181.58 C 112.06 184.25 115.14 187.14 119.05 187.45 C 118.83 185.75 119.18 183.69 117.53 182.61 C 106.87 172.72 102.57 155.89 108.36 142.42 C 112.39 133.57 118.42 125.58 126.51 120.05 Z" />
<path fill="#576a87" d=" M 136.82 146.01 C 151.61 145.99 166.39 145.99 181.18 146.01 C 181.18 150.11 181.30 154.21 181.11 158.31 C 180.13 163.84 176.91 168.98 172.03 171.85 C 164.31 176.49 154.26 176.58 146.22 172.73 C 140.70 170.05 137.53 164.24 136.82 158.32 C 136.70 154.21 136.83 150.11 136.82 146.01 Z" />
<path fill="#ffffff" d=" M 124.37 153.74 C 128.42 155.52 132.49 157.30 136.82 158.32 C 137.53 164.24 140.70 170.05 146.22 172.73 C 154.26 176.58 164.31 176.49 172.03 171.85 C 176.91 168.98 180.13 163.84 181.11 158.31 C 183.90 157.52 186.67 156.67 189.43 155.79 C 188.06 162.75 184.19 169.18 178.77 173.75 C 166.92 183.65 148.58 183.55 136.15 174.77 C 129.24 170.09 124.38 162.21 124.37 153.74 Z" />
<path fill="#ffffff" d=" M 167.99 161.07 C 168.69 158.22 170.41 154.22 174.08 155.97 C 174.24 159.31 173.37 163.49 170.01 164.98 C 167.41 165.98 167.14 162.72 167.99 161.07 Z" />
<path fill="#cf7046" d=" M 176.66 196.50 C 188.62 194.09 200.62 187.96 206.85 177.02 C 207.01 177.57 207.33 178.67 207.50 179.22 C 206.16 192.50 199.05 204.59 191.19 215.14 C 189.17 218.25 185.98 220.22 182.74 221.85 C 178.82 223.71 175.32 226.29 171.70 228.64 C 167.59 231.46 163.15 233.86 159.55 237.36 C 159.50 237.39 159.40 237.47 159.35 237.50 C 158.66 237.94 157.27 238.80 156.58 239.24 C 156.48 239.30 156.28 239.43 156.18 239.50 C 155.69 239.83 154.72 240.49 154.23 240.82 C 148.86 244.47 143.42 248.04 138.02 251.66 C 133.44 248.73 129.12 245.10 126.96 239.97 C 119.63 236.58 112.18 233.45 104.78 230.21 C 101.27 228.66 97.59 227.42 94.38 225.26 C 102.64 212.61 111.55 200.39 119.75 187.69 C 120.91 185.94 122.26 184.32 123.62 182.72 C 138.57 193.95 158.03 200.35 176.66 196.50 Z" />
<path fill="#e18861" d=" M 182.74 221.85 C 184.96 221.04 187.14 220.10 189.26 219.06 C 189.21 230.75 189.31 242.45 189.21 254.14 C 178.62 256.16 167.80 256.98 157.04 256.35 C 150.83 255.88 144.64 254.60 138.95 252.03 C 143.84 248.01 149.61 245.16 154.23 240.82 C 154.72 240.49 155.69 239.83 156.18 239.50 C 156.28 239.43 156.48 239.30 156.58 239.24 C 157.27 238.80 158.66 237.94 159.35 237.50 L 159.46 237.43 L 159.55 237.36 C 163.15 233.86 167.59 231.46 171.70 228.64 C 175.32 226.29 178.82 223.71 182.74 221.85 Z" />
</svg>
