<?xml version="1.0" encoding="UTF-8" ?>
<!DOCTYPE svg PUBLIC "-//W3C//DTD SVG 1.1//EN" "http://www.w3.org/Graphics/SVG/1.1/DTD/svg11.dtd">
<svg width="380pt" height="105pt" viewBox="0 0 380 105" version="1.1" xmlns="http://www.w3.org/2000/svg">
<path fill="#ffffff" d=" M 0.00 0.00 L 380.00 0.00 L 380.00 105.00 L 0.00 105.00 L 0.00 0.00 Z" />
<path fill="#ffb602" d=" M 63.12 9.42 C 76.17 5.41 91.28 12.88 96.24 25.54 C 98.73 31.46 99.06 38.26 97.08 44.37 C 98.13 38.89 98.38 33.07 96.43 27.75 C 92.70 16.89 81.58 8.90 70.02 9.41 C 57.95 9.37 46.78 18.58 44.04 30.24 C 42.67 35.26 43.16 40.58 44.62 45.52 C 38.44 31.12 48.19 13.21 63.12 9.42 Z" />
<path fill="#c5eae7" d=" M 44.04 30.24 C 46.78 18.58 57.95 9.37 70.02 9.41 C 81.58 8.90 92.70 16.89 96.43 27.75 C 98.38 33.07 98.13 38.89 97.08 44.37 C 95.24 49.41 92.42 54.20 88.21 57.62 C 87.62 55.69 86.94 53.79 86.25 51.90 C 84.92 53.06 83.47 54.10 82.34 55.46 C 81.51 57.52 81.89 59.83 81.69 61.99 C 80.88 62.27 79.26 62.84 78.45 63.12 C 78.52 61.63 78.56 60.15 78.60 58.67 C 73.26 58.70 67.93 58.70 62.60 58.68 C 62.64 60.16 62.70 61.65 62.77 63.13 C 61.24 62.51 59.70 61.89 58.17 61.29 C 58.79 57.62 59.45 53.88 58.77 50.17 C 55.43 50.66 53.96 54.42 52.35 56.98 C 48.99 53.77 46.29 49.87 44.62 45.52 C 43.16 40.58 42.67 35.26 44.04 30.24 Z" />
<path fill="#ffb602" d=" M 53.12 37.06 C 52.02 27.16 61.19 18.06 71.01 18.71 C 79.90 19.03 87.60 27.05 87.43 35.97 C 87.57 41.62 84.29 46.58 80.22 50.19 C 80.20 52.26 80.19 54.32 80.18 56.38 C 73.86 56.39 67.54 56.38 61.22 56.39 C 61.22 54.60 61.22 52.80 61.21 51.01 C 57.17 47.34 52.90 42.98 53.12 37.06 Z" />
<path fill="#ffffff" d=" M 77.13 22.38 C 79.40 24.25 82.09 26.07 82.84 29.11 C 81.74 30.08 79.48 31.27 79.08 29.02 C 78.16 26.90 77.72 24.61 77.13 22.38 Z" />
<path fill="#ffffff" d=" M 70.13 32.89 C 71.77 31.67 73.42 30.44 75.07 29.22 C 74.59 31.28 74.10 33.33 73.60 35.38 C 75.38 36.46 77.17 37.52 78.97 38.59 C 76.82 38.94 74.67 39.29 72.52 39.62 C 71.81 44.57 71.20 49.55 70.20 54.46 C 69.61 49.83 68.80 45.24 67.80 40.69 C 65.61 40.50 63.42 40.31 61.24 40.12 C 62.78 38.92 64.32 37.71 65.85 36.49 C 65.31 34.18 64.76 31.87 64.22 29.56 C 66.19 30.67 68.16 31.78 70.13 32.89 Z" />
<path fill="#ffffff" d=" M 81.04 32.03 C 82.19 32.13 83.32 32.31 84.44 32.56 C 85.08 34.14 85.27 35.85 85.60 37.51 C 84.28 37.51 82.95 37.55 81.64 37.38 C 81.26 35.62 81.18 33.81 81.04 32.03 Z" />
<path fill="#065c54" d=" M 286.41 46.37 C 288.43 46.38 290.45 46.39 292.47 46.40 C 292.46 62.48 292.45 78.56 292.48 94.63 C 290.45 94.65 288.42 94.65 286.40 94.66 C 286.44 78.56 286.42 62.47 286.41 46.37 Z" />
<path fill="#065c54" d=" M 191.25 46.66 C 193.14 46.64 195.03 46.64 196.93 46.65 C 196.90 62.48 196.86 78.32 196.95 94.16 C 195.04 94.16 193.14 94.16 191.24 94.16 C 191.32 78.33 191.31 62.49 191.25 46.66 Z" />
<path fill="#e18861" d=" M 52.35 56.98 C 53.96 54.42 55.43 50.66 58.77 50.17 C 59.45 53.88 58.79 57.62 58.17 61.29 C 57.71 67.17 63.64 71.20 68.96 71.49 C 74.79 72.15 81.05 68.06 81.69 61.99 C 81.89 59.83 81.51 57.52 82.34 55.46 C 83.47 54.10 84.92 53.06 86.25 51.90 C 86.94 53.79 87.62 55.69 88.21 57.62 C 89.08 61.59 89.29 65.80 88.46 69.80 C 85.11 73.87 80.34 76.95 74.97 77.24 C 68.80 78.02 63.02 75.29 57.80 72.35 C 55.28 76.50 51.12 79.73 50.43 84.85 C 49.90 84.91 48.84 85.03 48.31 85.10 C 47.93 85.61 47.17 86.65 46.79 87.17 C 44.29 84.54 42.68 81.25 42.71 77.56 C 44.19 80.03 45.80 82.41 47.66 84.61 C 48.34 83.98 49.00 83.35 49.65 82.70 L 48.10 83.57 C 44.76 79.59 43.39 74.30 45.09 69.29 C 46.09 72.89 47.93 76.20 51.17 78.22 C 49.44 75.32 47.06 72.51 46.93 68.99 C 46.92 66.27 48.25 63.81 49.24 61.36 C 49.70 65.96 50.71 72.18 55.74 73.76 C 56.42 72.23 54.74 71.07 54.15 69.80 C 51.31 66.22 50.82 61.21 52.35 56.98 Z" />
<path fill="#065c54" d=" M 111.19 60.07 C 113.56 54.99 118.49 51.27 123.97 50.14 C 129.87 48.68 136.07 49.88 141.67 51.99 C 140.95 53.80 140.22 55.60 139.44 57.38 C 134.80 55.18 129.54 54.86 124.55 55.71 C 115.62 59.36 113.71 70.71 115.94 79.10 C 116.80 83.91 120.39 87.94 125.07 89.36 C 130.12 90.07 135.24 89.50 140.13 88.10 C 140.22 89.83 140.32 91.56 140.44 93.30 C 135.09 94.51 129.53 96.44 124.04 94.79 C 119.21 93.95 114.40 91.46 112.02 87.00 C 107.54 78.80 107.37 68.56 111.19 60.07 Z" />
<path fill="#065c54" d=" M 62.60 58.68 C 67.93 58.70 73.26 58.70 78.60 58.67 C 78.56 60.15 78.52 61.63 78.45 63.12 C 76.89 70.65 64.08 70.99 62.77 63.13 C 62.70 61.65 62.64 60.16 62.60 58.68 Z" />
<path fill="#ffffff" d=" M 58.17 61.29 C 59.70 61.89 61.24 62.51 62.77 63.13 C 64.08 70.99 76.89 70.65 78.45 63.12 C 79.26 62.84 80.88 62.27 81.69 61.99 C 81.05 68.06 74.79 72.15 68.96 71.49 C 63.64 71.20 57.71 67.17 58.17 61.29 Z" />
<path fill="#065c54" d=" M 153.53 63.50 C 159.05 60.87 165.48 60.04 171.42 61.60 C 174.91 62.71 177.83 66.14 177.63 69.91 C 177.84 78.01 177.55 86.11 177.78 94.20 C 176.46 94.22 175.15 94.24 173.83 94.26 C 173.24 92.70 172.64 91.14 172.04 89.58 C 168.88 92.87 164.77 95.64 160.02 95.41 C 156.27 95.15 151.87 93.43 150.64 89.53 C 149.60 85.74 149.64 80.81 153.06 78.21 C 158.49 74.27 165.58 75.04 171.91 74.40 C 172.17 71.13 171.46 67.27 168.10 65.84 C 163.91 64.43 159.56 66.09 155.72 67.77 C 154.98 66.35 154.25 64.93 153.53 63.50 Z" />
<path fill="#065c54" d=" M 214.57 63.65 C 219.46 60.02 225.91 60.62 231.58 61.51 C 232.15 61.85 233.29 62.53 233.86 62.87 C 233.19 64.37 232.54 65.88 231.90 67.39 C 227.91 66.38 223.31 64.70 219.57 67.32 C 215.98 69.58 215.35 74.12 215.29 78.01 C 215.30 81.89 215.95 86.53 219.60 88.72 C 223.76 91.63 228.99 89.60 233.27 88.11 C 233.36 89.83 233.46 91.54 233.56 93.25 C 227.70 95.86 220.77 96.26 215.13 92.88 C 210.60 89.91 209.02 84.17 208.91 79.04 C 208.72 73.52 210.04 67.25 214.57 63.65 Z" />
<path fill="#065c54" d=" M 243.80 60.81 C 245.89 60.82 247.99 60.83 250.10 60.84 C 250.17 68.79 249.88 76.76 250.21 84.70 C 250.92 89.80 257.23 91.61 261.40 89.48 C 265.19 88.10 266.72 83.75 266.69 80.02 C 266.64 73.62 266.59 67.22 266.67 60.81 C 268.71 60.82 270.74 60.82 272.78 60.82 C 272.64 71.94 272.66 83.07 272.76 94.19 C 271.18 94.19 269.61 94.18 268.03 94.17 C 267.75 92.69 267.46 91.21 267.16 89.73 C 264.07 92.54 260.49 95.14 256.16 95.39 C 251.25 95.52 245.40 93.17 244.41 87.80 C 243.46 78.84 244.11 69.81 243.80 60.81 Z" />
<path fill="#065c54" d=" M 305.54 60.81 C 307.64 60.80 309.75 60.81 311.86 60.81 C 311.76 67.55 311.80 74.29 311.79 81.02 C 311.82 83.95 312.30 87.37 314.96 89.13 C 319.60 92.04 326.90 89.51 327.95 83.90 C 329.62 76.32 328.51 68.48 328.76 60.79 C 330.80 60.80 332.85 60.81 334.90 60.83 C 334.85 71.96 334.87 83.10 334.89 94.24 C 333.27 94.24 331.66 94.23 330.05 94.22 C 329.72 92.75 329.38 91.29 329.03 89.83 C 324.83 93.91 318.59 97.03 312.77 94.51 C 307.58 93.39 305.72 87.69 305.59 83.01 C 305.48 75.61 305.62 68.21 305.54 60.81 Z" />
<path fill="#065c54" d=" M 350.52 62.52 C 355.31 60.05 360.94 60.78 366.07 61.55 C 367.28 62.03 368.50 62.50 369.73 62.96 C 368.99 64.50 368.24 66.04 367.48 67.56 C 362.84 65.66 357.33 64.15 352.74 67.02 C 352.68 68.39 352.63 69.76 352.59 71.13 C 357.13 74.83 363.37 75.37 367.83 79.16 C 372.41 83.20 370.64 91.96 364.73 93.76 C 358.85 96.39 352.30 95.41 346.42 93.36 C 346.45 91.62 346.47 89.88 346.51 88.15 C 351.01 90.29 356.08 90.74 360.99 90.10 C 363.08 89.50 364.97 87.38 364.40 85.09 C 361.29 80.06 354.61 80.02 350.14 76.76 C 345.00 73.91 345.12 65.05 350.52 62.52 Z" />
<path fill="#ffffff" d=" M 73.87 65.39 C 72.75 64.13 74.42 61.49 76.03 62.31 C 77.15 63.54 75.42 66.13 73.87 65.39 Z" />
<path fill="#cf7046" d=" M 74.97 77.24 C 80.34 76.95 85.11 73.87 88.46 69.80 C 87.34 75.16 85.29 80.68 81.24 84.52 C 76.74 87.58 71.99 90.29 67.74 93.71 C 66.17 94.87 64.57 95.98 62.97 97.10 C 60.92 95.17 59.29 92.64 56.60 91.52 C 53.36 90.01 50.01 88.74 46.79 87.17 C 47.17 86.65 47.93 85.61 48.31 85.10 C 48.84 85.03 49.90 84.91 50.43 84.85 C 51.12 79.73 55.28 76.50 57.80 72.35 C 63.02 75.29 68.80 78.02 74.97 77.24 Z" />
<path fill="#ffffff" d=" M 159.34 80.19 C 163.20 78.23 167.63 78.44 171.83 78.68 C 171.89 81.99 171.98 85.83 169.15 88.13 C 166.56 90.72 162.36 90.78 159.08 89.80 C 155.09 88.14 155.71 81.88 159.34 80.19 Z" />
<path fill="#e18861" d=" M 67.74 93.71 C 71.99 90.29 76.74 87.58 81.24 84.52 C 81.46 89.02 81.44 93.53 81.37 98.03 C 75.50 98.63 69.37 99.37 63.69 97.26 C 65.05 96.08 66.34 94.84 67.74 93.71 Z" />
</svg>
